<?xml version="1.0" encoding="UTF-8"?>
<svg version="1.1" xmlns="http://www.w3.org/2000/svg" width="728" height="739">
<path d="M0 0 C240.24 0 480.48 0 728 0 C728 243.87 728 487.74 728 739 C487.76 739 247.52 739 0 739 C0 495.13 0 251.26 0 0 Z " fill="#FAFAFA" transform="translate(0,0)"/>
<path d="M0 0 C7.24070398 3.42873997 14.0769946 7.35389362 20.89328003 11.55740356 C23.93755217 13.43418164 26.99040309 15.29690821 30.04296875 17.16015625 C30.68313431 17.55120041 31.32329987 17.94224457 31.98286438 18.34513855 C40.90317912 23.78414271 49.90378791 29.08886159 58.89892578 34.40283203 C65.98297946 38.59148108 73.02301093 42.83890545 80.02319336 47.16674805 C84.26200746 49.77720118 88.53611191 52.32676545 92.8125 54.875 C99.56069367 58.90863728 106.25915615 63.00868829 112.90795898 67.20385742 C119.14536108 71.12524889 125.47250352 74.89392751 131.82421875 78.62695312 C133.41465449 79.57054225 134.99477098 80.53174642 136.56396484 81.51025391 C138.26430648 82.55009001 140.00374138 83.52745556 141.76806641 84.45458984 C145.70685671 86.73338595 148.44183092 88.39522896 149.97509766 92.8034668 C150.45505424 96.31558517 150.59241825 99.70529061 150.625 103.25 C150.67309814 104.5503418 150.72119629 105.85068359 150.77075195 107.19042969 C150.89407224 110.72006702 150.94865705 114.24725859 150.97967529 117.77880859 C151.0002847 120.0311138 151.03245142 122.28302317 151.06689453 124.53515625 C151.21132049 134.69331847 151.17070319 144.84248811 151 155 C150.98598145 155.9482666 150.97196289 156.8965332 150.95751953 157.87353516 C149.76076002 219.20437543 125.07965295 284.29782231 90 334 C89.25878906 335.07507813 88.51757812 336.15015625 87.75390625 337.2578125 C79.29472231 349.42186136 69.97845099 360.95442833 59.953125 371.86328125 C58.21103887 373.76912347 56.54045187 375.71503302 54.875 377.6875 C51.14713131 381.974549 47.13261102 385.97691377 43.125 390 C42.44550293 390.68408936 41.76600586 391.36817871 41.06591797 392.07299805 C40.10903076 393.02686401 40.10903076 393.02686401 39.1328125 394 C38.26487061 394.86625 38.26487061 394.86625 37.37939453 395.75 C36 397 36 397 35 397 C35.00276538 395.104683 35.00276538 395.104683 35.00558662 393.17107677 C35.04906699 363.05845515 35.08196289 332.94584173 35.10213066 302.83319632 C35.10463155 299.11267445 35.10722024 295.39215264 35.10986328 291.67163086 C35.11065021 290.56077389 35.11065021 290.56077389 35.11145304 289.42747537 C35.12011414 277.49556435 35.13585996 265.56367295 35.15430559 253.63177349 C35.17312504 241.35405961 35.18414193 229.07635587 35.18817699 216.79862815 C35.19089732 209.24568936 35.19943238 201.69280606 35.21583293 194.13988439 C35.22783086 188.31133758 35.22888146 182.48282493 35.22621536 176.65426826 C35.22675794 174.29030902 35.23063146 171.92634733 35.23841095 169.56240082 C35.30477132 148.32499477 34.41336904 127.02729844 31.25 106 C31.08081055 104.85740723 30.91162109 103.71481445 30.73730469 102.53759766 C25.68783986 69.83267137 16.35202432 37.67914094 2.48828125 7.60742188 C0 2.1914605 0 2.1914605 0 0 Z " fill="#131313" transform="translate(574,239)"/>
<path d="M0 0 C9.61977088 10.2564999 13.77141446 21.12315164 13.625 35.0625 C13.61670166 36.07852295 13.60840332 37.0945459 13.59985352 38.14135742 C13.31959084 50.58561879 9.83599949 59.00122605 2.1875 68.75 C1.445 69.801875 0.7025 70.85375 -0.0625 71.9375 C-8.11614867 80.17418614 -18.04149788 83.59573892 -28.8125 86.75 C-24.49322412 88.37915644 -20.16823774 89.98486779 -15.82421875 91.546875 C-1.167696 96.88048588 12.59207287 102.16452513 20.4375 116.5625 C23.91809358 124.18096663 25.74239689 132.4108624 26.1875 140.75 C26.28417969 142.30654297 26.28417969 142.30654297 26.3828125 143.89453125 C26.92106362 159.88058958 22.26455306 172.79582059 12 184.875 C-5.0960993 203.0860623 -28.77332246 207.35112752 -52.76222229 208.13175964 C-54.96638325 208.1964129 -57.17063373 208.25528677 -59.375 208.3125 C-60.14910217 208.33367889 -60.92320435 208.35485779 -61.72076416 208.37667847 C-89.73832975 209.11715522 -117.78785724 208.83674472 -145.8125 208.75 C-146.1425 205.78 -146.4725 202.81 -146.8125 199.75 C-145.4925 199.316875 -144.1725 198.88375 -142.8125 198.4375 C-141.58660156 198.01984375 -141.58660156 198.01984375 -140.3359375 197.59375 C-138.7470903 197.06249459 -137.14865606 196.55837494 -135.5390625 196.09375 C-131.79839198 194.92565958 -130.06162886 194.1277115 -127.875 190.8125 C-126.16551217 185.88515274 -125.66236554 181.64517388 -125.65859985 176.4311676 C-125.6542176 175.69215475 -125.64983535 174.95314191 -125.6453203 174.19173473 C-125.63196151 171.71449045 -125.62576013 169.23728172 -125.61962891 166.76000977 C-125.61172592 164.98430217 -125.60345684 163.20859617 -125.59484863 161.43289185 C-125.56866105 155.60241219 -125.55332869 149.77192544 -125.5390625 143.94140625 C-125.53370232 141.93435092 -125.52832481 139.92729564 -125.52293015 137.9202404 C-125.50131019 129.57420887 -125.48257162 121.22817925 -125.47130775 112.88212681 C-125.45505368 100.91748995 -125.42183044 88.95317703 -125.36490691 76.9886623 C-125.32624684 68.57668345 -125.30667999 60.1647914 -125.30138719 51.75272602 C-125.29772962 46.72728716 -125.28566445 41.70219408 -125.25328445 36.67685127 C-125.22327142 31.95141578 -125.2168677 27.22653655 -125.22866821 22.50102615 C-125.22888949 20.76637768 -125.22054011 19.03170388 -125.20301437 17.29714394 C-125.18039143 14.92936133 -125.1885834 12.56360794 -125.20449829 10.19581604 C-125.1906162 9.50884708 -125.17673412 8.82187813 -125.16243136 8.11409193 C-125.22481059 4.34970383 -125.75453682 2.82197089 -128.14664268 -0.14822483 C-131.28519989 -2.62267894 -133.5872056 -3.23703396 -137.5 -3.9375 C-143.63194444 -5.06944444 -143.63194444 -5.06944444 -145.8125 -7.25 C-146.0078125 -9.4140625 -146.0078125 -9.4140625 -145.9375 -11.875 C-145.91945313 -12.69226563 -145.90140625 -13.50953125 -145.8828125 -14.3515625 C-145.85960937 -14.97804688 -145.83640625 -15.60453125 -145.8125 -16.25 C-20.25334478 -19.10946817 -20.25334478 -19.10946817 0 0 Z " fill="#131313" transform="translate(525.8125,273.25)"/>
<path d="M0 0 C1.06142212 -0.00133942 2.12284424 -0.00267883 3.21643066 -0.00405884 C19.32639114 0.00033948 35.07308081 0.60182408 51.04492188 2.84423828 C53.73016305 3.22091543 56.41672783 3.55255798 59.109375 3.87109375 C80.53493834 6.55250686 101.31027546 12.46545499 121.75 19.25 C122.49314453 19.49499237 123.23628906 19.73998474 124.00195312 19.99240112 C134.59043581 23.50403453 144.78840247 27.62253862 154.9375 32.25 C154.9375 33.24 154.9375 34.23 154.9375 35.25 C154.16374023 35.59667725 153.38998047 35.94335449 152.59277344 36.30053711 C134.32356417 44.48494423 134.32356417 44.48494423 116.0625 52.6875 C115.28704834 53.03619141 114.51159668 53.38488281 113.71264648 53.74414062 C108.8915056 55.91406354 104.07532498 58.09466176 99.26171875 60.28125 C83.4877995 67.44043784 67.65967628 74.46567881 51.78930664 81.4085083 C39.77738329 86.66462635 27.80218585 91.99233265 15.86636353 97.41888428 C5.87374243 101.95939935 -4.17668375 106.35078046 -14.26013184 110.68536377 C-24.15745244 114.9439937 -33.95735714 119.38842922 -43.72338867 123.93969727 C-50.66858048 127.16873825 -57.65370659 130.281698 -64.6875 133.3125 C-67.52758641 134.54410665 -70.36699461 135.77725991 -73.20605469 137.01123047 C-75.12178996 137.84203737 -77.03913332 138.66914533 -78.95800781 139.49267578 C-101.69103581 149.29558251 -123.06200107 161.64553011 -143.0625 176.25 C-144.04452393 176.960354 -144.04452393 176.960354 -145.04638672 177.68505859 C-158.43513754 187.4011007 -170.8500461 198.1068393 -183.0625 209.25 C-184.57222348 205.2873881 -183.55889329 202.21023352 -182.56225586 198.18554688 C-182.38953533 197.47741694 -182.2168148 196.76928701 -182.03886032 196.0396986 C-181.46079169 193.68036922 -180.86923128 191.32464741 -180.27734375 188.96875 C-179.86493153 187.29987952 -179.45322805 185.63083375 -179.04219055 183.96162415 C-177.93626236 179.48258054 -176.81779473 175.00675854 -175.69618225 170.53162003 C-175.00064573 167.75258002 -174.30861891 164.97269003 -173.61779785 162.19247437 C-166.7969979 134.74685668 -159.72693266 107.38184988 -152.21646118 80.1159668 C-150.64222764 74.39532549 -149.10522957 68.6663831 -147.60546875 62.92578125 C-147.32774124 61.866119 -147.32774124 61.866119 -147.04440308 60.78504944 C-146.23339483 57.68889161 -145.42729631 54.59164781 -144.63183594 51.49145508 C-143.14580392 45.82364436 -141.50275603 40.21083859 -139.66015625 34.6484375 C-139.28511963 33.49778809 -138.91008301 32.34713867 -138.52368164 31.16162109 C-134.30993976 22.76511556 -118.95678375 20.28032873 -110.66943359 17.44628906 C-93.42880395 11.72819746 -76.00790088 7.08239622 -58.0625 4.25 C-57.16917969 4.10723633 -56.27585937 3.96447266 -55.35546875 3.81738281 C-52.61377914 3.38596419 -49.87039801 2.96962171 -47.125 2.5625 C-46.3213501 2.44285889 -45.5177002 2.32321777 -44.68969727 2.19995117 C-29.8367412 0.12032619 -14.96879437 0.01117507 0 0 Z " fill="#131313" transform="translate(362.0625,8.75)"/>
<path d="M0 0 C-2.22396754 11.41438653 -5.23205063 22.57733963 -8.29397583 33.78918457 C-9.86394781 39.54058299 -11.42064365 45.29556761 -12.9765625 51.05078125 C-13.30417068 52.26224823 -13.63177887 53.47371521 -13.96931458 54.72189331 C-17.56982733 68.06521776 -21.06432683 81.43600773 -24.55553436 94.80826569 C-29.21691656 112.66187371 -33.91792087 130.50261687 -38.77575684 148.30395508 C-59.59293806 221.35771551 -59.59293806 221.35771551 -73 296 C-73.12955833 296.99503036 -73.12955833 296.99503036 -73.26173401 298.01016235 C-74.20545394 306.0174798 -74.1267384 314.02158654 -74.09765625 322.0703125 C-74.09578729 323.6030167 -74.09436565 325.1357215 -74.09336853 326.66842651 C-74.08958097 330.66977639 -74.07978354 334.671089 -74.06866455 338.67242432 C-74.05836883 342.76859025 -74.05385356 346.86476231 -74.04882812 350.9609375 C-74.03815727 358.97397529 -74.02112698 366.98698299 -74 375 C-77.52211375 372.24578685 -80.34794736 369.57341255 -83.125 366.0625 C-84.28902344 364.61037109 -84.28902344 364.61037109 -85.4765625 363.12890625 C-85.88551758 362.61859863 -86.29447266 362.10829102 -86.71582031 361.58251953 C-88.93264824 358.85067949 -91.21853874 356.1778741 -93.5 353.5 C-97.6216932 348.65099108 -101.66992744 343.74837486 -105.6875 338.8125 C-108.26146594 335.68200088 -110.87579466 332.5883659 -113.5 329.5 C-117.55130933 324.72949449 -121.5454916 319.91774067 -125.5 315.06640625 C-133.50119808 305.25243673 -141.53815172 295.47758766 -149.80957031 285.88964844 C-153.52581181 281.57521917 -157.14251358 277.18753732 -160.73046875 272.765625 C-162.78836941 270.25789063 -164.8776574 267.7829622 -166.98461914 265.31665039 C-171.43498526 260.10202474 -175.82769699 254.84161966 -180.125 249.5 C-180.835354 248.63701294 -180.835354 248.63701294 -181.56005859 247.7565918 C-184.15722221 244.49168198 -185.52995026 242.13412598 -186 238 C-185.61376953 235.56591797 -185.61376953 235.56591797 -184.8828125 232.9921875 C-184.61041748 232.01942871 -184.33802246 231.04666992 -184.05737305 230.04443359 C-183.74968994 228.99852051 -183.44200684 227.95260742 -183.125 226.875 C-182.80764893 225.77623535 -182.49029785 224.6774707 -182.16333008 223.54541016 C-176.08228146 202.78379088 -169.195844 182.59901981 -160 163 C-159.54786133 162.02998047 -159.09572266 161.05996094 -158.62988281 160.06054688 C-148.1431308 137.77346222 -135.41974473 117.19996212 -120 98 C-119.28585938 97.08605469 -118.57171875 96.17210937 -117.8359375 95.23046875 C-115.92199807 92.79275577 -113.97075536 90.39198552 -112 88 C-110.77023438 86.49179688 -110.77023438 86.49179688 -109.515625 84.953125 C-98.40988005 71.5435287 -86.14174093 58.59512023 -72.3828125 47.88671875 C-69.90788049 45.92705947 -67.6210261 43.83983869 -65.3125 41.6875 C-19.29757785 0 -19.29757785 0 0 0 Z " fill="#131313" transform="translate(200,49)"/>
<path d="M0 0 C0.66 0 1.32 0 2 0 C3.37491299 1.50787161 4.67364462 3.08539761 5.9375 4.6875 C6.74058594 5.69167969 7.54367188 6.69585937 8.37109375 7.73046875 C8.79890137 8.26591309 9.22670898 8.80135742 9.66748047 9.35302734 C11.89732841 12.10908345 14.20014703 14.80234333 16.5 17.5 C19.85510252 21.44595275 23.17223477 25.41644101 26.4375 29.4375 C30.39508188 34.30129025 34.46542446 39.05881231 38.55834961 43.80834961 C42.33334391 48.1980035 46.00728461 52.66114771 49.65625 57.15625 C52.39302426 60.47686944 55.19117497 63.74033789 58 67 C63.09916541 72.92194546 68.070457 78.93587964 73 85 C80.38114532 94.0518617 87.83456186 103.0208033 95.51757812 111.81835938 C99.82719119 116.76564638 103.93459502 121.85048702 108 127 C112.89987505 133.08772354 117.90147729 139.0784874 123 145 C127.24511804 149.93052082 131.42061802 154.90683346 135.5234375 159.95703125 C138.66593086 163.81823366 141.83287213 167.65899728 145 171.5 C148.88975947 176.21738979 152.76964566 180.94190929 156.625 185.6875 C165.54565145 196.56524436 174.70119022 207.05545472 184.671875 216.98754883 C186.37654567 218.68904279 188.06735611 220.40353735 189.7578125 222.11914062 C197.36418747 229.76885735 205.38826742 236.51287699 214 243 C215.31542894 244.01911219 216.63061185 245.03854222 217.9453125 246.05859375 C232.99203941 257.31591155 249.30397792 266.43571924 266 275 C266 275.66 266 276.32 266 277 C255.64292427 277.62037895 245.28568016 278.23786953 234.92823982 278.8521328 C230.11353982 279.13775693 225.29889256 279.42420623 220.484375 279.71289062 C198.05984089 281.0568292 175.63560805 282.31357375 153.19326782 283.32357788 C143.88124971 283.74550473 134.57971814 284.24793243 125.27841187 284.86384583 C114.44426313 285.57727146 103.60729629 286.23345154 92.75 286.4375 C91.82098877 286.47182129 90.89197754 286.50614258 89.93481445 286.54150391 C85.69880448 286.5696128 83.68259529 286.52039443 80.23828125 283.89453125 C79.49964844 282.93933594 78.76101562 281.98414063 78 281 C77.10418036 279.94159328 76.20697207 278.88436078 75.30859375 277.828125 C74.3466768 276.63935346 73.38988205 275.44642401 72.4375 274.25 C71.92010254 273.60023193 71.40270508 272.95046387 70.86962891 272.28100586 C21.06821281 209.07730477 -4.15688145 131.54321281 -4.25 51.375 C-4.25200409 50.53070435 -4.25400818 49.68640869 -4.256073 48.81652832 C-4.27685795 12.83057384 -4.27685795 12.83057384 0 0 Z " fill="#131314" transform="translate(9,319)"/>
<path d="M0 0 C2.01166203 1.05823036 3.95017619 2.19885592 5.89331055 3.37817383 C6.62114746 3.81379639 7.34898437 4.24941895 8.09887695 4.69824219 C21.50088781 12.85814333 34.35752767 21.97627518 46.26831055 32.19067383 C47.2222168 32.9615332 48.17612305 33.73239258 49.15893555 34.52661133 C57.61582318 41.43422541 65.35003545 49.05662197 73.08081055 56.75317383 C73.61651672 57.28370361 74.1522229 57.8142334 74.7041626 58.36083984 C80.93604055 64.54523 86.81635184 70.81711843 92.27636719 77.70288086 C94.41135741 80.369329 96.64121336 82.93526246 98.89331055 85.50317383 C130.6540275 123.62589775 172.0519561 191.69323117 169.26831055 243.19067383 C164.16211507 241.43348105 159.73437251 238.60363963 155.14331055 235.81567383 C153.81323975 235.01274902 153.81323975 235.01274902 152.45629883 234.19360352 C145.85828187 230.19473437 139.32634289 226.09754166 132.81396484 221.96118164 C116.15512705 211.39218148 99.28564888 201.16862554 82.353302 191.04580688 C73.65858868 185.84699328 65.0070196 180.58562899 56.39331055 175.25317383 C43.31915568 167.16752096 30.10800351 159.32046002 16.87158203 151.50427246 C12.94778302 149.18665344 9.03092376 146.85790052 5.11987305 144.51879883 C-13.61896336 133.32818564 -32.73190603 123.03403978 -52.30981445 113.38989258 C-54.39501161 112.35738366 -56.47205561 111.31156978 -58.54418945 110.25317383 C-76.35768392 101.19016787 -94.56051792 92.81002514 -112.79418945 84.62817383 C-113.53032471 84.29744873 -114.26645996 83.96672363 -115.02490234 83.62597656 C-118.8658172 81.9058568 -122.71197278 80.19812972 -126.56469727 78.50463867 C-130.13633986 76.93458928 -133.70322544 75.35408059 -137.26803589 73.76858521 C-138.69509993 73.13642877 -140.12390644 72.50819044 -141.55447388 71.88400269 C-143.5593756 71.00888419 -145.55805055 70.12079504 -147.5559082 69.22973633 C-148.72210693 68.71620605 -149.88830566 68.20267578 -151.08984375 67.67358398 C-153.73168945 66.19067383 -153.73168945 66.19067383 -154.73168945 63.19067383 C-140.4403698 56.73771366 -126.13365902 50.33117566 -111.73168945 44.12817383 C-97.7133454 38.08804877 -83.76654816 31.89092339 -69.82327271 25.67974854 C-46.47031244 15.27767606 -46.47031244 15.27767606 -35.06420898 10.38598633 C-30.71888425 8.51724946 -26.41500755 6.58638231 -22.13793945 4.56567383 C-21.21891846 4.13601318 -20.29989746 3.70635254 -19.35302734 3.26367188 C-17.62708459 2.45306127 -15.90691869 1.62997172 -14.19433594 0.79150391 C-8.90224569 -1.68537105 -5.54797111 -2.59291192 0 0 Z " fill="#131314" transform="translate(547.731689453125,56.809326171875)"/>
<path d="M0 0 C0.33 0 0.66 0 1 0 C1.11678598 22.97424737 1.20496506 45.94844581 1.25906086 68.92292976 C1.28484578 79.59032232 1.32000194 90.25753048 1.37719727 100.92480469 C1.42702326 110.22208303 1.45928892 119.51922782 1.47044247 128.81663597 C1.47696257 133.73990591 1.49229276 138.66279379 1.52865028 143.58594131 C1.56259698 148.22020261 1.57305563 152.8539246 1.56553841 157.48829842 C1.56691355 159.1886685 1.57685413 160.88905669 1.59602737 162.58931923 C1.62094632 164.91316286 1.61491147 167.23497676 1.60127258 169.55886841 C1.60818603 171.50846057 1.60818603 171.50846057 1.61523914 173.49743843 C0.5846902 179.36436214 -3.2617675 182.74812795 -7.9765625 186.2265625 C-8.71946533 186.77715332 -9.46236816 187.32774414 -10.2277832 187.89501953 C-11.41440552 188.75135986 -11.41440552 188.75135986 -12.625 189.625 C-13.46184326 190.23327637 -14.29868652 190.84155273 -15.16088867 191.46826172 C-73.937981 233.72615814 -145.16918761 257.79854894 -217.625 258.125 C-218.6456958 258.12983398 -219.6663916 258.13466797 -220.71801758 258.13964844 C-225.9202486 258.1275773 -230.87455291 257.90449066 -236 257 C-228.59433712 248.26511557 -220.97059037 239.83616177 -212.7734375 231.8359375 C-210.66326947 229.67821639 -208.69013216 227.51117636 -206.7265625 225.2265625 C-201.99731826 219.76637657 -196.81946436 214.77215791 -191.671875 209.7109375 C-188.17945627 206.2541557 -184.76195758 202.7939517 -181.5625 199.0625 C-176.51211349 193.18589818 -170.89896256 187.85569447 -165.3828125 182.421875 C-160.97665649 178.0558967 -156.7440514 173.63796861 -152.70703125 168.9296875 C-149.0074877 164.74759479 -144.94511855 160.90785574 -140.9609375 157 C-140.29320312 156.34 -139.62546875 155.68 -138.9375 155 C-138.34839844 154.4225 -137.75929688 153.845 -137.15234375 153.25 C-135.27685337 151.28941477 -133.5043088 149.28570337 -131.73242188 147.23242188 C-128.10764483 143.06513172 -124.27229782 139.16068203 -120.34375 135.28125 C-119.2848053 134.22798523 -119.2848053 134.22798523 -118.20446777 133.15344238 C-115.22102625 130.18616234 -112.2315929 127.22494637 -109.24267578 124.26318359 C-107.04509421 122.08381535 -104.85062062 119.90135053 -102.65625 117.71875 C-101.99250366 117.063302 -101.32875732 116.407854 -100.64489746 115.73254395 C-96.82554979 111.93298439 -93.22924333 108.01203257 -89.70959473 103.93444824 C-87.00792284 100.87744043 -84.1233424 98.01901465 -81.21875 95.15625 C-80.60157104 94.54285767 -79.98439209 93.92946533 -79.34851074 93.29748535 C-76.74741211 90.71250482 -74.14029986 88.13362178 -71.53369141 85.55419922 C-62.19769971 76.37039713 -62.19769971 76.37039713 -53.41503906 66.66455078 C-51.08005641 63.91784414 -48.59055838 61.31648873 -46.125 58.6875 C-40.82703054 52.98542017 -35.85427191 47.0860738 -31 41 C-30.04383344 39.82351546 -29.08675011 38.64777561 -28.12890625 37.47265625 C-22.28958387 30.28110923 -16.7321673 22.9596599 -11.3984375 15.38671875 C-8.96101237 11.92885968 -6.4649782 8.51747577 -3.9375 5.125 C-3.20402344 4.13757813 -2.47054687 3.15015625 -1.71484375 2.1328125 C-1.14894531 1.42898438 -0.58304688 0.72515625 0 0 Z " fill="#131314" transform="translate(587,476)"/>
<path d="M0 0 C-0.47832275 0.47308594 -0.95664551 0.94617188 -1.44946289 1.43359375 C-3.6565534 3.61964406 -5.85953633 5.80979129 -8.0625 8 C-8.81466797 8.74378906 -9.56683594 9.48757813 -10.34179688 10.25390625 C-11.08623047 10.99511719 -11.83066406 11.73632812 -12.59765625 12.5 C-13.61098022 13.50546875 -13.61098022 13.50546875 -14.64477539 14.53125 C-16.55012824 16.52844374 -18.3499226 18.55562238 -20.14624023 20.6484375 C-24.54904087 25.71149472 -29.29829985 30.4045159 -34.0625 35.125 C-35.02251375 36.0805937 -35.98222453 37.03649184 -36.94165039 37.99267578 C-40.46770473 41.50550592 -43.9992429 45.01280573 -47.53063965 48.52026367 C-50.52691208 51.49665517 -53.52102231 54.47519157 -56.51242065 57.45648193 C-57.8988534 58.83653133 -59.28837298 60.21347744 -60.67797852 61.59033203 C-65.15322393 66.04834394 -69.48736959 70.55797244 -73.58752441 75.36486816 C-76.08679355 78.25811076 -78.85215753 80.87149611 -81.59375 83.53125 C-83.53645943 85.52441941 -85.34859237 87.54357638 -87.16015625 89.65234375 C-91.52657647 94.6822254 -96.2189029 99.3651419 -100.9375 104.0625 C-102.22043945 105.35124023 -102.22043945 105.35124023 -103.52929688 106.66601562 C-107.99112031 111.12103231 -112.52486464 115.40836799 -117.30932617 119.5144043 C-120.08694817 121.95510175 -122.54690611 124.67641551 -125.04296875 127.3984375 C-128.11429279 129.91189629 -130.94487448 130.08102422 -134.84545898 129.78149414 C-138.37942015 129.2247686 -141.91047454 128.66198492 -145.4375 128.0625 C-146.42515854 127.89553116 -146.42515854 127.89553116 -147.43276978 127.72518921 C-212.10537869 116.66158033 -273.26092987 85.82840665 -322 42 C-322.55864746 41.49774902 -323.11729492 40.99549805 -323.69287109 40.47802734 C-327.15828037 37.3502682 -330.60052476 34.19950611 -334 31 C-335.15628906 29.9171875 -335.15628906 29.9171875 -336.3359375 28.8125 C-338 27 -338 27 -338 25 C-334.60315036 23.86771679 -331.75828399 23.73095892 -328.17822266 23.55102539 C-327.48619247 23.51507767 -326.79416229 23.47912994 -326.0811615 23.4420929 C-323.77564524 23.32331563 -321.46987536 23.2105169 -319.1640625 23.09765625 C-317.53060991 23.01457955 -315.89717718 22.93111155 -314.26376343 22.84727478 C-309.92815843 22.62572452 -305.59231992 22.40912781 -301.25640869 22.19366455 C-296.99632822 21.98131763 -292.73644566 21.76509185 -288.4765625 21.54882812 C-286.79276555 21.46336386 -285.10896835 21.37790448 -283.4251709 21.29244995 C-282.17310097 21.22889627 -282.17310097 21.22889627 -280.89573669 21.16405869 C-278.32459872 21.03379011 -275.75342801 20.90418376 -273.18225098 20.77468872 C-262.90584272 20.25613939 -252.63104001 19.71363974 -242.35704422 19.14942741 C-219.43140872 17.89108479 -196.49886935 16.77710193 -173.56591797 15.66143799 C-168.06214024 15.39348238 -162.55841672 15.12441849 -157.0546875 14.85546875 C-153.78686517 14.69586636 -150.51904133 14.53629491 -147.25121689 14.37673569 C-145.10175378 14.27178289 -142.95229139 14.16681525 -140.80282974 14.06183243 C-130.53959106 13.56066496 -120.27632344 13.06024917 -110.01261902 12.56869888 C-106.24809395 12.38833072 -102.48361513 12.20700783 -98.7191391 12.02561951 C-96.98615699 11.94241129 -95.25315099 11.85969885 -93.52011871 11.77754211 C-65.55949652 10.45196892 -37.94272238 7.96815348 -10.77978516 0.84277344 C-9.80058105 0.58915039 -8.82137695 0.33552734 -7.8125 0.07421875 C-6.52279297 -0.27249878 -6.52279297 -0.27249878 -5.20703125 -0.6262207 C-3 -1 -3 -1 0 0 Z " fill="#131314" transform="translate(450,601)"/>
<path d="M0 0 C1.09080241 6.15605095 1.12876053 12.16082279 1.09765625 18.40234375 C1.09553383 20.0188961 1.09553383 20.0188961 1.09336853 21.66810608 C1.08779611 25.09126629 1.07524868 28.51435975 1.0625 31.9375 C1.05748144 34.26627509 1.05291915 36.59505122 1.04882812 38.92382812 C1.0378357 44.61591092 1.02059011 50.30794416 1 56 C-3.62 56 -8.24 56 -13 56 C-13.49628906 54.41832031 -13.99257813 52.83664062 -14.50390625 51.20703125 C-22.49151168 24.79670652 -22.49151168 24.79670652 -41.75 6.125 C-43.4845842 5.37971229 -45.23588489 4.67240909 -47 4 C-47.93070313 3.60941406 -48.86140625 3.21882813 -49.8203125 2.81640625 C-61.00281397 -1.31625734 -76.28790039 -2.41305462 -87.6484375 1.90234375 C-88.42445313 2.26457031 -89.20046875 2.62679688 -90 3 C-91.04414063 3.47566406 -92.08828125 3.95132812 -93.1640625 4.44140625 C-111.21061661 13.38171064 -121.40444653 30.4825155 -128 49 C-139.94010926 85.92061088 -140.46974133 130.22465785 -123.125 165.5 C-120.03044248 171.51365043 -116.63681014 177.03272678 -112 182 C-111.43152344 182.60972656 -110.86304688 183.21945312 -110.27734375 183.84765625 C-97.53672004 196.15547745 -79.10280135 200.67755464 -61.87207031 200.47070312 C-48.71980476 199.96505365 -36.17847651 194.91016907 -26.375 186 C-17.85181033 176.70576383 -11.91192661 165.50424917 -7 154 C-2.71 154 1.58 154 6 154 C5.48781724 163.85161412 4.21957744 172.99315781 2.0625 182.625 C1.79759766 183.86378906 1.53269531 185.10257813 1.25976562 186.37890625 C-1.1004853 197.16695143 -1.1004853 197.16695143 -3 200 C-4.98925781 201.26098633 -4.98925781 201.26098633 -7.453125 202.33203125 C-8.37077637 202.73470215 -9.28842773 203.13737305 -10.23388672 203.55224609 C-11.2292041 203.96812988 -12.22452148 204.38401367 -13.25 204.8125 C-14.2827002 205.24900879 -15.31540039 205.68551758 -16.37939453 206.13525391 C-50.33140247 220.21342013 -84.93873513 226.74731219 -120 213 C-143.1098896 203.17829692 -161.91907575 185.18948464 -171.6796875 161.93383789 C-179.09162868 143.55986404 -181.27750098 125.74990358 -181.25 106.0625 C-181.24931519 105.36298218 -181.24863037 104.66346436 -181.2479248 103.94274902 C-181.12784445 66.73312117 -169.1898537 39.08729386 -143.4765625 12.37890625 C-102.69635104 -26.70777483 -47.82003953 -19.86463763 0 0 Z " fill="#131313" transform="translate(355,266)"/>
<path d="M0 0 C4.39570216 -0.08852235 8.7911694 -0.14089579 13.1875 -0.1875 C14.41404297 -0.21263672 15.64058594 -0.23777344 16.90429688 -0.26367188 C29.66266187 -0.36466157 43.19211633 1.30556453 53.21875 9.90234375 C64.40067651 21.43892091 67.5203677 38.22719377 67.35131836 53.80761719 C66.94735835 66.15443676 63.4463408 77.19209165 54.25 85.8125 C43.17611185 94.70516776 31.54225193 96.11603209 17.75 96.375 C16.91033691 96.40118408 16.07067383 96.42736816 15.20556641 96.4543457 C9.26933108 96.47018036 5.01573483 95.19789712 0 92 C-1.77940638 90.22059362 -1.130354 87.62259278 -1.1328125 85.21484375 C-1.13474609 83.92489502 -1.13667969 82.63494629 -1.13867188 81.3059082 C-1.13452918 79.8497709 -1.12995739 78.39363476 -1.125 76.9375 C-1.12411377 76.20155609 -1.12322754 75.46561218 -1.12231445 74.70736694 C-1.08795344 49.80256975 -0.5000141 24.8988129 0 0 Z " fill="#F9F9FA" transform="translate(442,370)"/>
<path d="M0 0 C3.49344187 -0.047725 6.98679829 -0.07624706 10.48046875 -0.1015625 C11.46011597 -0.11517822 12.43976318 -0.12879395 13.44909668 -0.14282227 C26.9480421 -0.2160178 38.01561173 2.91684779 48.21484375 11.96484375 C55.94497401 19.69497401 57.23065873 28.30815799 57.375 38.9375 C57.22840294 52.06729402 54.1827474 62.88984049 45.5 72.875 C33.51871205 83.05909476 17.27891147 84.94280034 2 84 C0.00342426 82.00342426 0.81506573 78.00387402 0.79467773 75.26733398 C0.78477814 74.4576416 0.77487854 73.64794922 0.76467896 72.8137207 C0.73297013 70.12454195 0.70826965 67.4353455 0.68359375 64.74609375 C0.66303231 62.88663766 0.64203606 61.02718632 0.62062073 59.16773987 C0.56531634 54.26376185 0.5159441 49.35974107 0.46777344 44.45568848 C0.41761934 39.45544612 0.36190155 34.45526618 0.30664062 29.45507812 C0.19895679 19.63677201 0.09753468 9.81841181 0 0 Z " fill="#F9F9FA" transform="translate(441,271)"/>
<path d="M0 0 C0.33 0 0.66 0 1 0 C1.07003466 23.00882891 1.12296098 46.01764029 1.15543652 69.02655411 C1.17091525 79.70963348 1.19202401 90.39264669 1.22631836 101.07568359 C1.25618989 110.38539382 1.27556768 119.69505614 1.28226548 129.00481296 C1.28618155 133.9357361 1.29540575 138.86652216 1.31719017 143.79740143 C1.33751984 148.43649006 1.34384094 153.07538484 1.33932304 157.71451378 C1.34014982 159.41892995 1.34613642 161.12335247 1.35761642 162.82773018 C1.37250572 165.15185225 1.36896701 167.47523895 1.36076355 169.79937744 C1.36352893 171.10094913 1.36629431 172.40252083 1.36914349 173.74353409 C0.98120149 177.16583447 0.34326352 178.54173632 -2 181 C-2.66 180.67 -3.32 180.34 -4 180 C-3.34 179.01 -2.68 178.02 -2 177 C-1.70187892 173.83515546 -1.70187892 173.83515546 -1.75949097 170.14741516 C-1.75692769 169.09613907 -1.75692769 169.09613907 -1.75431263 168.02362508 C-1.75101223 165.66969954 -1.76203033 163.31605758 -1.77294922 160.9621582 C-1.77351321 159.27700813 -1.773197 157.59185756 -1.77206421 155.90670776 C-1.77148924 151.32641012 -1.78326685 146.74621675 -1.79721212 142.16594338 C-1.80969549 137.3813201 -1.81088809 132.59669455 -1.81326294 127.8120575 C-1.81948476 118.74918826 -1.83590506 109.68636715 -1.85596192 100.62351912 C-1.8782991 90.30684484 -1.88930886 79.99016829 -1.89935279 69.67347586 C-1.92027068 48.44895703 -1.95546029 27.22448154 -2 6 C-2.66 5.67 -3.32 5.34 -4 5 C-2.69254251 3.31295807 -1.35827971 1.64639965 0 0 Z " fill="#353535" transform="translate(587,476)"/>
<path d="M0 0 C3.85704268 1.51341361 5.65401537 3.79760586 8.125 7.0625 C10.60931622 10.5712541 10.60931622 10.5712541 14 13 C14 13.66 14 14.32 14 15 C14.71430176 14.93941406 15.42860352 14.87882813 16.16455078 14.81640625 C42.38396283 12.61983878 42.38396283 12.61983878 54 13 C54 13.33 54 13.66 54 14 C43.91218579 15.41053083 33.87617675 16.26218301 23.6875 16.4375 C22.70386475 16.47166016 21.72022949 16.50582031 20.70678711 16.54101562 C13.77001164 16.58425412 13.77001164 16.58425412 10.1015625 13.80078125 C9.40804687 12.87652344 8.71453125 11.95226562 8 11 C7.26136719 10.12859375 6.52273437 9.2571875 5.76171875 8.359375 C5.07722656 7.49828125 4.39273438 6.6371875 3.6875 5.75 C2.99011719 4.87859375 2.29273437 4.0071875 1.57421875 3.109375 C0 1 0 1 0 0 Z " fill="#080908" transform="translate(79,589)"/>
<path d="M0 0 C0 3 0 3 -1.46713257 4.82116699 C-2.49733017 5.83684753 -2.49733017 5.83684753 -3.54833984 6.87304688 C-4.70987076 8.02939636 -4.70987076 8.02939636 -5.89486694 9.20910645 C-7.16507187 10.45138 -7.16507187 10.45138 -8.4609375 11.71875 C-9.75229111 13.00017883 -9.75229111 13.00017883 -11.06973267 14.30749512 C-13.8311891 17.04547547 -16.60256894 19.77313658 -19.375 22.5 C-22.13857144 25.22853484 -24.90001665 27.9591734 -27.65884399 30.69250488 C-29.37849384 32.39515393 -31.10121174 34.09471083 -32.82723999 35.79089355 C-33.60789825 36.56179321 -34.38855652 37.33269287 -35.19287109 38.12695312 C-35.88126068 38.80407349 -36.56965027 39.48119385 -37.27890015 40.17883301 C-39.18109231 42.08926136 -39.18109231 42.08926136 -41 45 C-41.99 44.67 -42.98 44.34 -44 44 C-29.48 29.48 -14.96 14.96 0 0 Z " fill="#010101" transform="translate(421,628)"/>
<path d="M0 0 C0 0.99 0 1.98 0 3 C-2.23828125 4.9453125 -2.23828125 4.9453125 -5.3125 7.125 C-6.4272011 7.93163526 -7.5404534 8.74027594 -8.65234375 9.55078125 C-9.21679199 9.96021973 -9.78124023 10.3696582 -10.36279297 10.79150391 C-16.03457888 14.978104 -21.40102613 19.58453952 -26.6953125 24.234375 C-27.32646973 24.78569092 -27.95762695 25.33700684 -28.60791016 25.9050293 C-29.8504834 26.99352346 -31.08735697 28.08856549 -32.31787109 29.19067383 C-36.66696026 33 -36.66696026 33 -40 33 C-27.93077564 20.52846816 -14.1022002 10.04422014 0 0 Z " fill="#09090A" transform="translate(159,72)"/>
<path d="M0 0 C3.79351705 1.57415805 6.21537354 3.95711251 9.10546875 6.83984375 C9.58897293 7.32143448 10.07247711 7.80302521 10.57063293 8.29920959 C11.59422728 9.32144512 12.61530894 10.34620205 13.6340332 11.37329102 C15.15824649 12.90804421 16.69260468 14.43204279 18.22851562 15.95507812 C25.41413672 23.13080508 32.34863766 30.52295649 38 39 C37.01 39.495 37.01 39.495 36 40 C35.47792969 39.34515625 34.95585938 38.6903125 34.41796875 38.015625 C25.31070134 26.7232514 15.46871668 16.33182147 5.13061523 6.16723633 C4.46489502 5.51005615 3.7991748 4.85287598 3.11328125 4.17578125 C2.51298096 3.58708252 1.91268066 2.99838379 1.29418945 2.3918457 C0 1 0 1 0 0 Z " fill="#040404" transform="translate(606,101)"/>
<path d="M0 0 C3.50369882 1.5049979 5.77273177 3.54435206 8.5 6.1875 C13.90793528 11.20547532 19.65313282 15.64994102 25.5625 20.0625 C26.45582031 20.72983154 27.34914062 21.39716309 28.26953125 22.0847168 C32.47071354 25.30348306 32.47071354 25.30348306 37 28 C37 28.66 37 29.32 37 30 C32.72397693 28.54066002 29.61687775 26.39499426 26.0625 23.625 C25.50691406 23.1923584 24.95132813 22.7597168 24.37890625 22.31396484 C18.25904926 17.50038313 12.37936885 12.40602302 6.515625 7.28613281 C5.0803213 6.06815925 3.58804913 4.91826344 2.09375 3.7734375 C1.4028125 3.18820312 0.711875 2.60296875 0 2 C0 1.34 0 0.68 0 0 Z " fill="#0B0B0C" transform="translate(200,544)"/>
<path d="M0 0 C0.66 0 1.32 0 2 0 C3.3046875 1.4765625 3.3046875 1.4765625 4.875 3.625 C8.06253557 7.84848463 11.415016 11.87579063 14.875 15.875 C16.91820644 18.2486779 18.95978154 20.62375342 21 23 C21.46889648 23.5460791 21.93779297 24.0921582 22.42089844 24.65478516 C23.70547652 26.15871538 24.97808863 27.67284214 26.25 29.1875 C26.97703125 30.04730469 27.7040625 30.90710938 28.453125 31.79296875 C30 34 30 34 30 37 C26.17549681 33.27338172 22.64656965 29.37870814 19.1875 25.3125 C18.66341553 24.69890625 18.13933105 24.0853125 17.59936523 23.453125 C13.8774124 19.07744675 10.24660227 14.63764965 6.69140625 10.125 C5.16771516 8.21070911 3.59821538 6.35197102 2 4.5 C0 2 0 2 0 0 Z " fill="#0C0C0C" transform="translate(53,336)"/>
<path d="M0 0 C3.35049434 2.54016895 6.01535094 5.03578445 8.5625 8.375 C12.45146898 13.36559708 16.53184646 18.15577538 20.69946289 22.91357422 C24.06024127 26.7855932 27.07326085 30.78913399 30 35 C29.67 35.66 29.34 36.32 29 37 C21.88691031 28.75555594 14.84753229 20.46765084 8 12 C6.84564453 10.59814453 6.84564453 10.59814453 5.66796875 9.16796875 C4.56388672 7.81638672 4.56388672 7.81638672 3.4375 6.4375 C2.77621094 5.63183594 2.11492188 4.82617188 1.43359375 3.99609375 C0 2 0 2 0 0 Z " fill="#0D0D0D" transform="translate(19,295)"/>
<path d="M0 0 C0.33 0 0.66 0 1 0 C1.33 17.82 1.66 35.64 2 54 C1.34 54 0.68 54 0 54 C0 51.03 0 48.06 0 45 C-0.66 45 -1.32 45 -2 45 C-2 41.7 -2 38.4 -2 35 C-1.67 35 -1.34 35 -1 35 C-0.67 23.45 -0.34 11.9 0 0 Z " fill="#464747" transform="translate(124,365)"/>
<path d="M0 0 C3.92683468 0.27396521 5.72768614 0.77609749 8.8125 3.3125 C11.77214327 6.94863316 12.12736111 9.71611057 12.11352539 14.30957031 C12.11344986 15.15013977 12.11337433 15.99070923 12.11329651 16.85675049 C12.10813522 17.75480408 12.10297394 18.65285767 12.09765625 19.578125 C12.0962413 20.5046991 12.09482635 21.43127319 12.09336853 22.38592529 C12.08777824 25.34064992 12.0752275 28.29529833 12.0625 31.25 C12.05748375 33.25520724 12.05292106 35.26041567 12.04882812 37.265625 C12.03781199 42.17711263 12.020554 47.0885434 12 52 C11.67 52 11.34 52 11 52 C10.98018066 50.96182129 10.96036133 49.92364258 10.93994141 48.85400391 C10.86318772 44.95859759 10.77458527 41.06353136 10.68261719 37.16845703 C10.64461286 35.49079154 10.60971328 33.81305246 10.578125 32.13525391 C10.90153979 18.77815427 10.90153979 18.77815427 8 6 C5.52430849 3.85415081 2.96536799 2.376778 0 1 C0 0.67 0 0.34 0 0 Z " fill="#000000" transform="translate(391,268)"/>
<path d="M0 0 C0 0.33 0 0.66 0 1 C-13.0164602 1.7680946 -25.96123872 2.13274757 -39 2 C-39.33 1.34 -39.66 0.68 -40 0 C-26.51205252 -0.82279418 -13.48117234 -1.29715748 0 0 Z " fill="#222222" transform="translate(210,599)"/>
<path d="M0 0 C0.99 0.33 1.98 0.66 3 1 C-6.57 10.57 -16.14 20.14 -26 30 C-26.66 29.67 -27.32 29.34 -28 29 C-27.22285645 28.22809326 -26.44571289 27.45618652 -25.64501953 26.66088867 C-22.76129522 23.7952699 -19.8808861 20.92633847 -17.00146484 18.05639648 C-15.75497108 16.81493021 -14.50758109 15.57436311 -13.25927734 14.3347168 C-11.46475409 12.55232834 -9.67348281 10.76672699 -7.8828125 8.98046875 C-7.04521896 8.15061714 -7.04521896 8.15061714 -6.19070435 7.30400085 C-3.84761187 4.96124847 -1.8446511 2.76697665 0 0 Z " fill="#040404" transform="translate(494,583)"/>
<path d="M0 0 C0.99 0.33 1.98 0.66 3 1 C-6 10 -15 19 -24 28 C-23.44890184 24.08249516 -21.67793235 22.3396069 -18.88671875 19.62890625 C-18.05076172 18.80712891 -17.21480469 17.98535156 -16.35351562 17.13867188 C-15.47373047 16.28853516 -14.59394531 15.43839844 -13.6875 14.5625 C-11.95999615 12.87860055 -10.23466289 11.19247085 -8.51171875 9.50390625 C-7.74303467 8.75955322 -6.97435059 8.0152002 -6.18237305 7.24829102 C-3.94759263 4.94600968 -1.96349472 2.53549474 0 0 Z " fill="#0B0A0A" transform="translate(433,646)"/>
<path d="M0 0 C-5.94 5.94 -11.88 11.88 -18 18 C-18.66 17.67 -19.32 17.34 -20 17 C-15.38 12.38 -10.76 7.76 -6 3 C-6.99 3 -7.98 3 -9 3 C-9.33 3.66 -9.66 4.32 -10 5 C-10.99 4.34 -11.98 3.68 -13 3 C-3.44262295 -1.14754098 -3.44262295 -1.14754098 0 0 Z " fill="#070707" transform="translate(450,601)"/>
<path d="M0 0 C0.66 0.33 1.32 0.66 2 1 C1.44570313 1.53109375 0.89140625 2.0621875 0.3203125 2.609375 C-0.40414062 3.31578125 -1.12859375 4.0221875 -1.875 4.75 C-2.59429688 5.44609375 -3.31359375 6.1421875 -4.0546875 6.859375 C-5.89438419 8.8837802 -6.8077494 10.5770391 -8 13 C-9.7265625 14.921875 -9.7265625 14.921875 -11.625 16.75 C-12.57246094 17.67039062 -12.57246094 17.67039062 -13.5390625 18.609375 C-14.02117188 19.06828125 -14.50328125 19.5271875 -15 20 C-15.66 19.01 -16.32 18.02 -17 17 C-11.39 11.39 -5.78 5.78 0 0 Z " fill="#0B0B0B" transform="translate(529,548)"/>
<path d="M0 0 C4.95 2.31 9.9 4.62 15 7 C15 7.66 15 8.32 15 9 C7.74 9 0.48 9 -7 9 C-7 8.67 -7 8.34 -7 8 C-2.05 7.34 2.9 6.68 8 6 C5.36 4.68 2.72 3.36 0 2 C0 1.34 0 0.68 0 0 Z " fill="#080809" transform="translate(260,587)"/>
<path d="M0 0 C7.874884 5.906163 13.42317767 13.98331791 19 22 C18.01 22 17.02 22 16 22 C13.984375 19.91015625 13.984375 19.91015625 11.75 17.0625 C10.96238281 16.06476563 10.17476562 15.06703125 9.36328125 14.0390625 C8.58339844 13.03617187 7.80351563 12.03328125 7 11 C6.29230469 10.12085938 5.58460937 9.24171875 4.85546875 8.3359375 C0 2.26412933 0 2.26412933 0 0 Z " fill="#0C0C0C" transform="translate(112,442)"/>
<path d="M0 0 C8.11690648 3.98504453 14.96298437 9.39866608 22 15 C21.34 15.66 20.68 16.32 20 17 C19.39414062 16.50371094 18.78828125 16.00742188 18.1640625 15.49609375 C12.87669821 11.20926147 7.51399979 7.20156909 1.8359375 3.4453125 C1.23007812 2.96835938 0.62421875 2.49140625 0 2 C0 1.34 0 0.68 0 0 Z " fill="#0C0C0C" transform="translate(566,69)"/>
<path d="M0 0 C0.66 0.33 1.32 0.66 2 1 C-5.33333333 8.33333333 -12.66666667 15.66666667 -20 23 C-20 20 -20 20 -18.1640625 17.82348633 C-17.32617188 17.00130615 -16.48828125 16.17912598 -15.625 15.33203125 C-14.72265625 14.43935547 -13.8203125 13.54667969 -12.890625 12.62695312 C-11.9272427 11.68863843 -10.96369892 10.7504895 -10 9.8125 C-9.03577654 8.86332231 -8.07222608 7.91346044 -7.109375 6.96289062 C-4.74613254 4.63509681 -2.37618518 2.31456867 0 0 Z " fill="#020102" transform="translate(403,678)"/>
<path d="M0 0 C2.71800166 2.61465559 5.04329768 5.26061676 7.234375 8.328125 C8.09482422 9.52695312 8.09482422 9.52695312 8.97265625 10.75 C9.55917969 11.575 10.14570312 12.4 10.75 13.25 C11.35199219 14.09046875 11.95398438 14.9309375 12.57421875 15.796875 C14.0528237 17.86222795 15.52795148 19.92997153 17 22 C16.67 22.66 16.34 23.32 16 24 C0 5.24263039 0 5.24263039 0 0 Z " fill="#090909" transform="translate(62,564)"/>
<path d="M0 0 C3.49605027 1.43642065 5.08022506 3.12769602 7.25 6.1875 C10.69703855 10.80340476 14.586991 14.33770977 19 18 C19.66 18.66 20.32 19.32 21 20 C15.49047913 20 11.77690162 14.68879349 8 11 C4.70946064 7.5419179 2.03334971 4.33969545 0 0 Z " fill="#080808" transform="translate(232,437)"/>
<path d="M0 0 C0.66 0 1.32 0 2 0 C6.83019381 5.24048054 11.23635466 10.9454401 15 17 C10.91667098 15.44533803 8.91791007 12.74912156 6.25 9.375 C5.45078125 8.37210937 4.6515625 7.36921875 3.828125 6.3359375 C3.22484375 5.56507813 2.6215625 4.79421875 2 4 C1.01 4.495 1.01 4.495 0 5 C0 3.35 0 1.7 0 0 Z " fill="#0B0B0B" transform="translate(9,319)"/>
<path d="M0 0 C5.94128384 4.41787773 10.77146855 9.92970818 15 16 C15 16.99 15 17.98 15 19 C11.34121273 15.43350647 7.9600635 11.73472795 4.6875 7.8125 C4.23310547 7.27947266 3.77871094 6.74644531 3.31054688 6.19726562 C0 2.23954417 0 2.23954417 0 0 Z " fill="#0A0A0A" transform="translate(98,390)"/>
<path d="M0 0 C5.17935061 1.46828943 9.34373412 3.81491263 13.875 6.625 C14.90753906 7.25535156 14.90753906 7.25535156 15.9609375 7.8984375 C17.64391658 8.92692472 19.32242532 9.962721 21 11 C20.34 11.66 19.68 12.32 19 13 C5.32783369 4.9508332 5.32783369 4.9508332 0 1 C0 0.67 0 0.34 0 0 Z " fill="#09090A" transform="translate(651,286)"/>
<path d="M0 0 C7.43795752 3.0428008 12.93740132 11.28788045 17 18 C16.34 18.33 15.68 18.66 15 19 C14.25234375 18.04738281 13.5046875 17.09476562 12.734375 16.11328125 C11.73959527 14.8463448 10.74480293 13.57941824 9.75 12.3125 C9.25886719 11.68666016 8.76773438 11.06082031 8.26171875 10.41601562 C5.52440413 6.93050167 2.77506692 3.45561905 0 0 Z " fill="#0A0A0A" transform="translate(39,356)"/>
<path d="M0 0 C0.66 0.33 1.32 0.66 2 1 C-13.4335512 15 -13.4335512 15 -16 15 C-14.71160058 11.13480173 -12.85887311 10.02029651 -9.6875 7.5 C-8.72199219 6.7265625 -7.75648438 5.953125 -6.76171875 5.15625 C-4.52600682 3.41068708 -2.27873373 1.68875279 0 0 Z " fill="#0C0C0D" transform="translate(203,194)"/>
<path d="M0 0 C-0.25561323 2.3431213 -0.59270772 4.67843403 -1 7 C-1.99 7.495 -1.99 7.495 -3 8 C-3 6.68 -3 5.36 -3 4 C-4.0725 4.474375 -5.145 4.94875 -6.25 5.4375 C-8.80839865 6.53766332 -11.25835017 7.45167003 -14 8 C-14 7.34 -14 6.68 -14 6 C-12.04414675 4.99515796 -10.08523763 3.99626195 -8.125 3 C-6.48917969 2.1646875 -6.48917969 2.1646875 -4.8203125 1.3125 C-2 0 -2 0 0 0 Z " fill="#070707" transform="translate(200,49)"/>
<path d="M0 0 C0.66 0.33 1.32 0.66 2 1 C0.62714844 2.35544922 0.62714844 2.35544922 -0.7734375 3.73828125 C-1.97409058 4.92955423 -3.17460415 6.12096783 -4.375 7.3125 C-4.97828125 7.90740234 -5.5815625 8.50230469 -6.203125 9.11523438 C-6.78320312 9.69208984 -7.36328125 10.26894531 -7.9609375 10.86328125 C-8.49509277 11.39219971 -9.02924805 11.92111816 -9.57958984 12.46606445 C-11.21501465 14.1510098 -11.21501465 14.1510098 -13 17 C-13.99 16.67 -14.98 16.34 -16 16 C-10.72 10.72 -5.44 5.44 0 0 Z " fill="#070707" transform="translate(393,656)"/>
<path d="M0 0 C0.66 0.99 1.32 1.98 2 3 C-0.31 4.98 -2.62 6.96 -5 9 C-5.66 8.34 -6.32 7.68 -7 7 C-4.69 4.69 -2.38 2.38 0 0 Z M-7 10 C-6.67 10.66 -6.34 11.32 -6 12 C-6.66 11.67 -7.32 11.34 -8 11 C-7.67 10.67 -7.34 10.34 -7 10 Z " fill="#1B1B1B" transform="translate(441,638)"/>
<path d="M0 0 C0 6.6 0 13.2 0 20 C-0.33 20 -0.66 20 -1 20 C-1.33 15.38 -1.66 10.76 -2 6 C-3.32 6.99 -4.64 7.98 -6 9 C-5.67 8.236875 -5.34 7.47375 -5 6.6875 C-3.82563314 4.00930865 -3.82563314 4.00930865 -4 1 C-1 0 -1 0 0 0 Z " fill="#1A191A" transform="translate(586,481)"/>
<path d="M0 0 C-1.11440652 3.34321955 -1.97472343 4.06019619 -4.625 6.25 C-8.63082341 9.64121152 -12.3422074 13.23933198 -16 17 C-16 14 -16 14 -14.74658203 12.37426758 C-14.17278809 11.80345459 -13.59899414 11.2326416 -13.0078125 10.64453125 C-12.38519531 10.02255859 -11.76257813 9.40058594 -11.12109375 8.75976562 C-10.46238281 8.11716797 -9.80367188 7.47457031 -9.125 6.8125 C-8.47402344 6.15830078 -7.82304687 5.50410156 -7.15234375 4.83007812 C-2.26686327 0 -2.26686327 0 0 0 Z " fill="#070707" transform="translate(340,712)"/>
<path d="M0 0 C6.01726797 4.47437874 10.3791571 10.13666379 15 16 C12 16 12 16 10.09765625 14.20703125 C9.09025391 13.02173828 9.09025391 13.02173828 8.0625 11.8125 C7.01255859 10.58273437 7.01255859 10.58273437 5.94140625 9.328125 C5.30074219 8.55984375 4.66007812 7.7915625 4 7 C3.175 6.030625 2.35 5.06125 1.5 4.0625 C0 2 0 2 0 0 Z " fill="#0B0B0B" transform="translate(67,388)"/>
<path d="M0 0 C2.48046875 0.95703125 2.48046875 0.95703125 5 3 C5.65114624 5.90588457 5.47031903 8.72778626 5.3125 11.6875 C5.28994141 12.48478516 5.26738281 13.28207031 5.24414062 14.10351562 C5.18526944 16.06981334 5.09558755 18.03514491 5 20 C4.67 20 4.34 20 4 20 C3.81824219 18.33710938 3.81824219 18.33710938 3.6328125 16.640625 C3.46393704 15.17703766 3.29464428 13.71349843 3.125 12.25 C3.04636719 11.52039063 2.96773437 10.79078125 2.88671875 10.0390625 C2.44863824 6.33222743 2.0013785 3.19547828 0 0 Z " fill="#090909" transform="translate(718,326)"/>
<path d="M0 0 C3.75657223 0.26208643 5.7453102 0.81322748 8.8125 3.0625 C11.70600834 6.94806834 11.92109973 9.18708344 12 14 C11.34 14.66 10.68 15.32 10 16 C9.90203125 15.31292969 9.8040625 14.62585938 9.703125 13.91796875 C9.55359375 13.01691406 9.4040625 12.11585938 9.25 11.1875 C9.11078125 10.29417969 8.9715625 9.40085937 8.828125 8.48046875 C7.56687317 4.70266257 5.14146719 3.60244102 1.75 1.8125 C1.1725 1.544375 0.595 1.27625 0 1 C0 0.67 0 0.34 0 0 Z " fill="#070607" transform="translate(391,268)"/>
<path d="M0 0 C0.99 0.33 1.98 0.66 3 1 C-1.62 5.62 -6.24 10.24 -11 15 C-11.66 14.67 -12.32 14.34 -13 14 C-12.22914063 13.24074219 -11.45828125 12.48148438 -10.6640625 11.69921875 C-9.65090904 10.69544634 -8.63789552 9.69153268 -7.625 8.6875 C-7.11710937 8.18798828 -6.60921875 7.68847656 -6.0859375 7.17382812 C-3.77145867 4.87457613 -1.81652517 2.72478775 0 0 Z " fill="#080808" transform="translate(379,702)"/>
<path d="M0 0 C0.66 0.33 1.32 0.66 2 1 C0.73046875 2.46484375 -0.5390625 3.9296875 -1.80859375 5.39453125 C-3.20871231 7.10712971 -3.20871231 7.10712971 -4 10 C-5.87617698 11.84499398 -7.92737609 13.3683599 -10 15 C-10.66 14.67 -11.32 14.34 -12 14 C-11.236875 13.278125 -10.47375 12.55625 -9.6875 11.8125 C-7.26397535 9.27625327 -5.7639867 6.99110788 -4 4 C-2.70420353 2.63015802 -1.38007251 1.2848951 0 0 Z " fill="#090909" transform="translate(548,527)"/>
<path d="M0 0 C3.45201639 1.47721422 5.64961936 3.43794001 8.25 6.125 C8.95640625 6.84945312 9.6628125 7.57390625 10.390625 8.3203125 C11.18726563 9.15175781 11.18726563 9.15175781 12 10 C11.01 10.33 10.02 10.66 9 11 C7.49403892 9.54782324 5.99537896 8.08807139 4.5 6.625 C3.6646875 5.81289063 2.829375 5.00078125 1.96875 4.1640625 C0 2 0 2 0 0 Z " fill="#242425" transform="translate(186,530)"/>
<path d="M0 0 C3.68000434 2.75839204 6.49505889 5.62075382 9.3125 9.25 C10.00988281 10.14203125 10.70726562 11.0340625 11.42578125 11.953125 C11.94527344 12.62859375 12.46476563 13.3040625 13 14 C12.01 14 11.02 14 10 14 C8.1380628 12.08235129 6.47754723 10.20096474 4.8125 8.125 C4.34908203 7.56941406 3.88566406 7.01382812 3.40820312 6.44140625 C0 2.27526694 0 2.27526694 0 0 Z " fill="#0B0B0B" transform="translate(152,490)"/>
<path d="M0 0 C0.33 0 0.66 0 1 0 C1.78287497 6.10642479 -0.89174849 10.00459579 -4 15 C-4.66 14.67 -5.32 14.34 -6 14 C-5.73445313 13.40832031 -5.46890625 12.81664062 -5.1953125 12.20703125 C-3.38863385 8.1650823 -1.59873147 4.1300563 0 0 Z " fill="#0A0A0A" transform="translate(508,434)"/>
<path d="M0 0 C0.66 0.33 1.32 0.66 2 1 C-0.19471406 5.51135667 -2.41173718 7.06273348 -7 9 C-5.44499019 5.18315774 -2.96404505 2.80804268 0 0 Z " fill="#1D1D1D" transform="translate(460,618)"/>
<path d="M0 0 C2 1 2 1 2.6328125 2.85546875 C3.5740148 7.31497489 4.23530026 11.41164496 4 16 C3.01 15.67 2.02 15.34 1 15 C0.67 10.05 0.34 5.1 0 0 Z " fill="#0B0C0C" transform="translate(713,284)"/>
<path d="M0 0 C0.66 0 1.32 0 2 0 C0.47987323 5.40489519 -3.27385218 8.98492628 -7 13 C-7.66 12.67 -8.32 12.34 -9 12 C-7.54927753 9.99406276 -6.09008971 7.99539826 -4.625 6 C-4.2125 5.42765625 -3.8 4.8553125 -3.375 4.265625 C-2.29828281 2.80684688 -1.15333422 1.39899024 0 0 Z " fill="#0C0C0C" transform="translate(85,140)"/>
<path d="M0 0 C0 3 0 3 -1.390625 4.68359375 C-2.00421875 5.26238281 -2.6178125 5.84117187 -3.25 6.4375 C-4.20326172 7.35015625 -4.20326172 7.35015625 -5.17578125 8.28125 C-5.77777344 8.8484375 -6.37976563 9.415625 -7 10 C-8.2065625 11.2065625 -8.2065625 11.2065625 -9.4375 12.4375 C-9.953125 12.953125 -10.46875 13.46875 -11 14 C-11 11 -11 11 -8.59375 8.30078125 C-7.5700032 7.29697757 -6.5383946 6.30114351 -5.5 5.3125 C-4.97535156 4.80138672 -4.45070313 4.29027344 -3.91015625 3.76367188 C-2.61339096 2.50227292 -1.30753883 1.25022788 0 0 Z " fill="#0D0D0D" transform="translate(373,677)"/>
<path d="M0 0 C0.99 0.33 1.98 0.66 3 1 C2.04270084 2.12588014 1.08412105 3.2506715 0.125 4.375 C-0.40867187 5.00148438 -0.94234375 5.62796875 -1.4921875 6.2734375 C-3.9455697 9.0827508 -5.34577225 10.26915445 -9 11 C-8.60167969 10.54109375 -8.20335937 10.0821875 -7.79296875 9.609375 C-5.08857938 6.47728415 -2.42008229 3.36122541 0 0 Z " fill="#0D0E0E" transform="translate(360,722)"/>
<path d="M0 0 C4.92908146 3.87792288 8.5423711 7.76116833 12 13 C11.01 13.495 11.01 13.495 10 14 C8.51551984 12.23361856 7.03758035 10.46173862 5.5625 8.6875 C4.73878906 7.70136719 3.91507813 6.71523437 3.06640625 5.69921875 C1 3 1 3 0 0 Z " fill="#0A0B0A" transform="translate(632,127)"/>
<path d="M0 0 C4.56048012 3.61251516 8.01665146 6.98797445 11 12 C10.01 12 9.02 12 8 12 C5.95703125 9.8828125 5.95703125 9.8828125 3.8125 7.125 C3.09707031 6.22007812 2.38164063 5.31515625 1.64453125 4.3828125 C0 2 0 2 0 0 Z " fill="#090909" transform="translate(91,417)"/>
<path d="M0 0 C0.66 0 1.32 0 2 0 C3.60178593 1.78104718 5.13381926 3.62537278 6.625 5.5 C7.85089844 7.03140625 7.85089844 7.03140625 9.1015625 8.59375 C9.72804688 9.3878125 10.35453125 10.181875 11 11 C10.34 11.66 9.68 12.32 9 13 C7.4941255 11.21326795 5.9954515 9.42046492 4.5 7.625 C3.6646875 6.62726563 2.829375 5.62953125 1.96875 4.6015625 C0 2 0 2 0 0 Z " fill="#0D0C0D" transform="translate(24,337)"/>
<path d="M0 0 C0.99 0 1.98 0 3 0 C2.49202991 4.3177458 1.80317221 8.03302114 0 12 C-0.33 12 -0.66 12 -1 12 C-0.67 8.04 -0.34 4.08 0 0 Z " fill="#1F1F1F" transform="translate(8,322)"/>
<path d="M0 0 C0 3.99282941 -1.47808076 5.15331592 -4 8.1875 C-4.7425 9.08855469 -5.485 9.98960937 -6.25 10.91796875 C-6.8275 11.60503906 -7.405 12.29210937 -8 13 C-8.66 12.34 -9.32 11.68 -10 11 C-6.7 7.37 -3.4 3.74 0 0 Z " fill="#0A0A0A" transform="translate(212,278)"/>
<path d="M0 0 C0.33 0 0.66 0 1 0 C1 4.29 1 8.58 1 13 C0.01 13.495 0.01 13.495 -1 14 C-1.22331199 12.41870971 -1.42804644 10.83478911 -1.625 9.25 C-1.74101563 8.36828125 -1.85703125 7.4865625 -1.9765625 6.578125 C-2.00207817 3.77140122 -1.44843844 2.36615134 0 0 Z " fill="#1E1E1F" transform="translate(723,339)"/>
<path d="M0 0 C2.04119788 1.61594832 4.04072937 3.2856382 6 5 C6 5.66 6 6.32 6 7 C6.99 6.67 7.98 6.34 9 6 C9 7.65 9 9.3 9 11 C5.43279004 8.32459253 2.58873576 5.64340588 0 2 C0 1.34 0 0.68 0 0 Z " fill="#050505" transform="translate(117,413)"/>
<path d="M0 0 C3.99012371 0.55989303 6.5255052 1.75669768 9.8125 4.0625 C10.60269531 4.61035156 11.39289062 5.15820312 12.20703125 5.72265625 C12.79871094 6.14417969 13.39039063 6.56570313 14 7 C13.01 7.495 13.01 7.495 12 8 C9.1796875 6.6015625 9.1796875 6.6015625 5.875 4.625 C4.77929688 3.97789062 3.68359375 3.33078125 2.5546875 2.6640625 C1.71164062 2.11492187 0.86859375 1.56578125 0 1 C0 0.67 0 0.34 0 0 Z " fill="#060606" transform="translate(612,263)"/>
<path d="M0 0 C3.96 1.98 3.96 1.98 8 4 C7.34 4.66 6.68 5.32 6 6 C5.34 5.67 4.68 5.34 4 5 C4.33 6.32 4.66 7.64 5 9 C1.9083091 6.47043472 1.09068668 3.77545388 0 0 Z " fill="#050505" transform="translate(574,239)"/>
<path d="M0 0 C0.66 0.33 1.32 0.66 2 1 C1.01 2.485 1.01 2.485 0 4 C-0.66 4 -1.32 4 -2 4 C-2 4.66 -2 5.32 -2 6 C-2.66 6 -3.32 6 -4 6 C-4.66 7.32 -5.32 8.64 -6 10 C-6.33 9.01 -6.66 8.02 -7 7 C-4.69 4.69 -2.38 2.38 0 0 Z " fill="#0D0D0D" transform="translate(505,572)"/>
<path d="M0 0 C0 0.66 0 1.32 0 2 C-1.6210103 2.69685498 -3.24696066 3.38222861 -4.875 4.0625 C-5.77992188 4.44535156 -6.68484375 4.82820313 -7.6171875 5.22265625 C-10 6 -10 6 -12 5 C-10.37750059 4.16180842 -8.75191503 3.3295884 -7.125 2.5 C-6.22007812 2.0359375 -5.31515625 1.571875 -4.3828125 1.09375 C-2 0 -2 0 0 0 Z " fill="#0A0A0A" transform="translate(427,106)"/>
<path d="M0 0 C0.66 0.33 1.32 0.66 2 1 C-0.64 4.3 -3.28 7.6 -6 11 C-6.33 10.34 -6.66 9.68 -7 9 C-4.69 6.03 -2.38 3.06 0 0 Z " fill="#080808" transform="translate(572,497)"/>
<path d="M0 0 C3.45195767 1.4258086 5.1014256 3.09746334 7.25 6.125 C8.03117187 7.21167969 8.03117187 7.21167969 8.828125 8.3203125 C9.40820312 9.15175781 9.40820312 9.15175781 10 10 C9.01 10.495 9.01 10.495 8 11 C6.66375099 9.35653302 5.33107149 7.71016314 4 6.0625 C3.2575 5.14597656 2.515 4.22945313 1.75 3.28515625 C0 1 0 1 0 0 Z " fill="#0B0B0A" transform="translate(81,406)"/>
<path d="M0 0 C4.99275057 1.27721526 7.57611908 3.17330957 11 7 C7.63596525 7 6.59907083 6.38119947 3.8125 4.625 C3.09707031 4.18414062 2.38164062 3.74328125 1.64453125 3.2890625 C1.10183594 2.86367188 0.55914062 2.43828125 0 2 C0 1.34 0 0.68 0 0 Z " fill="#0E0D0D" transform="translate(478,274)"/>
<path d="M0 0 C1.59157575 3.1831515 0.77242108 5.61323065 0 9 C-2.05078125 10.72265625 -2.05078125 10.72265625 -4 12 C-3.52494322 10.18641846 -3.04483958 8.37415821 -2.5625 6.5625 C-2.29566406 5.55316406 -2.02882813 4.54382813 -1.75390625 3.50390625 C-1 1 -1 1 0 0 Z " fill="#1A1919" transform="translate(27,245)"/>
<path d="M0 0 C0.66 0.66 1.32 1.32 2 2 C1.625 5.625 1.625 5.625 1 9 C0.01 8.67 -0.98 8.34 -2 8 C-1.125 1.125 -1.125 1.125 0 0 Z " fill="#1A1A1A" transform="translate(183,196)"/>
<path d="M0 0 C0.99 0.33 1.98 0.66 3 1 C3 1.99 3 2.98 3 4 C2.34 4 1.68 4 1 4 C0.87625 4.804375 0.7525 5.60875 0.625 6.4375 C0.41875 7.283125 0.2125 8.12875 0 9 C-0.99 9.495 -0.99 9.495 -2 10 C-1.34 6.7 -0.68 3.4 0 0 Z " fill="#1A1A1A" transform="translate(196,141)"/>
<path d="M0 0 C3.93548431 3.06093224 6.68116787 5.49115974 9 10 C4.71095765 8.4114658 2.67654474 5.56872632 0 2 C0 1.34 0 0.68 0 0 Z " fill="#0B0A0B" transform="translate(103,431)"/>
<path d="M0 0 C0.99 0 1.98 0 3 0 C3 1.65 3 3.3 3 5 C2.34 5 1.68 5 1 5 C0.67 6.65 0.34 8.3 0 10 C-0.33 10 -0.66 10 -1 10 C-0.67 6.7 -0.34 3.4 0 0 Z " fill="#1B1B1C" transform="translate(126,326)"/>
<path d="M0 0 C0.33 0.66 0.66 1.32 1 2 C-1 5 -1 5 -4 6 C-2.84826645 3.53199953 -1.95216435 1.95216435 0 0 Z M-6 7 C-5.34 7.66 -4.68 8.32 -4 9 C-4.99 9 -5.98 9 -7 9 C-6.67 8.34 -6.34 7.68 -6 7 Z " fill="#1B1B1B" transform="translate(101,122)"/>
<path d="M0 0 C0.99 0.33 1.98 0.66 3 1 C3 1.66 3 2.32 3 3 C-0.465 4.485 -0.465 4.485 -4 6 C-3.67 5.01 -3.34 4.02 -3 3 C-2.34 3 -1.68 3 -1 3 C-0.67 2.01 -0.34 1.02 0 0 Z " fill="#1D1D1D" transform="translate(521,467)"/>
<path d="M0 0 C5.75 3.625 5.75 3.625 8 7 C7.01 7.495 7.01 7.495 6 8 C6 7.34 6 6.68 6 6 C5.38125 5.7525 4.7625 5.505 4.125 5.25 C1.64931313 3.79371361 1.04874998 2.62187494 0 0 Z " fill="#0D0D0E" transform="translate(533,376)"/>
<path d="M0 0 C0 0.66 0 1.32 0 2 C-1.65 2.66 -3.3 3.32 -5 4 C-5 3.34 -5 2.68 -5 2 C-5.66 1.67 -6.32 1.34 -7 1 C-3.375 -1.125 -3.375 -1.125 0 0 Z " fill="#191919" transform="translate(353,115)"/>
<path d="M0 0 C2 3 2 3 1.8125 5 C1 7 1 7 -2 10 C-1.34 6.7 -0.68 3.4 0 0 Z " fill="#232323" transform="translate(213,77)"/>
</svg>
